<svg preserveAspectRatio="none" width="100%" height="100%" overflow="visible" style="display: block;" viewBox="0 0 1014 909.002" fill="none" xmlns="http://www.w3.org/2000/svg">
<g id="Logo">
<g id="Group 2">
<path id="Subtract" fill-rule="evenodd" clip-rule="evenodd" d="M508.397 0.5C571.23 21.3333 703.979 98.7155 695.397 269.5C685.397 468.5 508.397 587.5 508.397 614V613.5C508.397 587 331.397 468 321.397 269C312.815 98.2155 445.564 20.8333 508.397 0V0.5ZM508.5 131C468.46 131 436 163.459 436 203.5C436 243.541 468.46 276 508.5 276C548.541 276 581 243.54 581 203.5C581 163.46 548.541 131 508.5 131Z" fill="var(--fill-0, #77A26F)"/>
<mask id="mask0_0_30" style="mask-type:alpha" maskUnits="userSpaceOnUse" x="321" y="0" width="375" height="614">
<path id="Subtract_2" opacity="0.65" fill-rule="evenodd" clip-rule="evenodd" d="M508.397 0.5C571.23 21.3333 703.979 98.7155 695.397 269.5C685.397 468.5 508.397 587.5 508.397 614V613.5C508.397 587 331.397 468 321.397 269C312.815 98.2155 445.564 20.8333 508.397 0V0.5ZM508.5 131C468.46 131 436 163.459 436 203.5C436 243.541 468.46 276 508.5 276C548.541 276 581 243.54 581 203.5C581 163.46 548.541 131 508.5 131Z" fill="var(--fill-0, #77A26F)"/>
</mask>
<g mask="url(#mask0_0_30)">
<path id="Vector 2" d="M412.729 367.719C341.035 306.367 321.929 229.676 321.337 199C313.529 464.042 443.192 596.767 509 630V543.595C506.782 510.533 484.422 429.071 412.729 367.719Z" fill="var(--fill-0, #5D9053)"/>
<path id="Vector 3" d="M582.5 264.5C649.3 196.1 645.667 103.333 635.5 65.5C838.7 294.7 636.167 541.333 509.5 636V551C506 484 515.7 332.9 582.5 264.5Z" fill="var(--fill-0, #315C28)"/>
<path id="Vector 1" d="M523.5 644.5L508.5 273.5L493.5 644.5H523.5Z" fill="var(--fill-0, #A2BF9C)"/>
</g>
</g>
<g id="Subtract_3">
<path d="M636.838 720.936C639.812 720.804 642.841 721.306 646.665 723.03C667.278 735.675 688.206 749.179 708.707 763.282L708.688 763.327C708.783 763.37 708.876 763.415 708.967 763.461C709.388 763.751 709.809 764.04 710.229 764.33C710.966 765.017 711.337 765.799 711.379 766.441C711.423 767.122 711.114 768.26 709.166 769.242C667.911 785.894 616.397 808.629 569.389 833.354C538.652 849.52 509.369 866.781 486.023 883.988C475.299 891.893 465.146 900.27 456.575 909.002H215.261C226.03 901.3 237.723 893.568 250.215 885.846C290.33 861.048 337.517 837.048 386.23 814.993C474.659 774.958 567.097 741.797 629.275 722.267C632.076 721.546 634.45 721.041 636.838 720.936Z" fill="#F6D254"/>
<path d="M742.778 795.734C745.405 795.031 747.438 794.769 749.346 794.953C751.115 795.124 752.864 795.687 754.954 796.8C781.541 817.181 806.065 838.173 826.697 859.098C843.426 876.064 857.176 892.567 867.404 908.274C862.334 908.753 857.196 909.002 852 909.002H514.614C534.801 894.831 559.711 880.249 586.611 866.101C640.166 837.933 700.097 812.261 742.778 795.734Z" fill="#F6D254"/>
<path d="M503.316 650.161C507.222 649.719 510.824 649.531 514.304 650.566C536.376 661.047 563.084 674.802 591.98 690.976C592.528 691.475 592.833 691.891 592.986 692.21C593.19 692.634 593.177 692.953 592.813 693.458C592.358 694.092 591.439 694.823 590.036 695.587C588.672 696.33 587.029 697.008 585.327 697.616L585.331 697.628C524.639 717.915 446.434 747.121 370.97 781.286C321.384 803.736 272.669 828.467 230.76 854.374C202.595 871.785 176.96 890.055 156.099 908.894C92.9541 906.632 39.018 868.234 14.3486 813.753C71.6005 776.556 155.362 743.147 241.813 715.75C341.147 684.271 441.48 661.498 503.324 650.201L503.316 650.161Z" fill="#F6D254"/>
<path d="M545.279 605.714C601.567 619.904 690.418 650.024 776.333 690.547C864.077 731.932 945.391 782.637 987.37 836.021C968.021 865.385 939.373 888.08 905.619 899.915C892.737 877.202 874.342 854.719 853.044 833.119C823.314 802.967 786.72 773.333 748.3 745.854C674.75 693.25 593.133 647.572 536.793 620.314C536.147 619.894 535.607 619.514 535.165 619.133C534.567 618.617 534.257 618.194 534.107 617.819C533.925 617.363 533.826 616.556 534.564 615.005C534.669 614.87 534.776 614.731 534.887 614.59C536.692 612.294 538.902 609.69 541.526 606.726C541.784 606.499 542.15 606.259 542.677 606.069C543.264 605.858 544.103 605.691 545.279 605.714Z" fill="#F6D254"/>
<path d="M596.186 580.594C648.118 582.695 723.566 589.699 800.868 603.525C878.554 617.42 956.374 637.913 1014 666.273V747.001C1014 765.484 1010.9 783.244 1005.2 799.791C955.544 744.467 873.764 695.592 792.117 657.082C722.77 624.374 651.44 598.205 595.536 581.331C595.288 581.19 595.05 581.049 594.83 580.908C594.764 580.866 594.701 580.823 594.641 580.782C595.066 580.707 595.578 580.644 596.186 580.594Z" fill="#F6D254"/>
<path d="M0 639.041C163.838 575.603 367.207 577.282 451.844 586.819C453.226 587.063 454.367 587.349 455.48 587.771C457.293 588.456 459.122 589.528 461.771 591.494C462.19 591.944 462.607 592.39 463.019 592.832C470.875 601.271 476.811 607.779 480.93 612.867C481.359 613.482 481.469 613.941 481.469 614.242C481.469 614.596 481.321 615.059 480.736 615.623C480.044 616.29 478.886 616.943 477.271 617.479C413.795 629.902 321.868 651.567 230.636 680.479C148.044 706.652 64.2665 739.294 2.82422 777.269C0.971183 767.464 9.07296e-05 757.346 0 747.002V639.041Z" fill="#F6D254"/>
</g>
<g id="Subtract_4">
<path d="M658.518 544.991C727.166 526.598 865.019 508.657 1014 545.901V625.445C953.848 598.738 879.14 579.937 807.382 567.103C754.589 557.66 702.607 551.316 657.909 547.5C657.04 547.201 656.475 546.851 656.226 546.589C656.244 546.564 656.265 546.533 656.292 546.5C656.599 546.134 657.266 545.611 658.518 544.991Z" fill="#77A26F"/>
<path d="M0 484.792C87.0533 469.009 227.362 464.214 389.258 509.853L389.257 509.857C390.889 510.51 392.289 511.666 393.468 512.833C393.761 513.124 394.028 513.4 394.278 513.665C396.112 516.067 397.943 518.434 399.771 520.762C406.084 528.8 412.376 536.436 418.521 543.651C418.91 544.264 419.23 544.916 419.372 545.484C419.519 546.072 419.416 546.295 419.372 546.362C419.338 546.414 419.139 546.669 418.383 546.876C320.334 540.892 147.798 545.908 0 599.529V484.792Z" fill="#77A26F"/>
</g>
</g>
</svg>
